<svg xmlns="http://www.w3.org/2000/svg" viewBox="0 0 500 500"><g id="freepik--background-complete--inject-71"><rect y="382.4" width="500" height="0.25" style="fill:#ebebeb"></rect><rect x="363" y="398.49" width="86.9" height="0.25" style="fill:#ebebeb"></rect><rect x="357.66" y="389.21" width="8.69" height="0.25" style="fill:#ebebeb"></rect><rect x="280.12" y="397.5" width="19.19" height="0.25" style="fill:#ebebeb"></rect><rect x="52.46" y="390.89" width="21.6" height="0.25" style="fill:#ebebeb"></rect><rect x="82.96" y="390.89" width="27.93" height="0.25" style="fill:#ebebeb"></rect><rect x="207.67" y="394.99" width="46.84" height="0.25" style="fill:#ebebeb"></rect><path d="M237,337.8H43.91a5.71,5.71,0,0,1-5.7-5.71V60.66A5.71,5.71,0,0,1,43.91,55H237a5.71,5.71,0,0,1,5.71,5.71V332.09A5.71,5.71,0,0,1,237,337.8ZM43.91,55.2a5.46,5.46,0,0,0-5.45,5.46V332.09a5.46,5.46,0,0,0,5.45,5.46H237a5.47,5.47,0,0,0,5.46-5.46V60.66A5.47,5.47,0,0,0,237,55.2Z" style="fill:#ebebeb"></path><path d="M453.31,337.8H260.21a5.72,5.72,0,0,1-5.71-5.71V60.66A5.72,5.72,0,0,1,260.21,55h193.1A5.71,5.71,0,0,1,459,60.66V332.09A5.71,5.71,0,0,1,453.31,337.8ZM260.21,55.2a5.47,5.47,0,0,0-5.46,5.46V332.09a5.47,5.47,0,0,0,5.46,5.46h193.1a5.47,5.47,0,0,0,5.46-5.46V60.66a5.47,5.47,0,0,0-5.46-5.46Z" style="fill:#ebebeb"></path><path d="M258.6,319.84H194l-6.16-107a4.48,4.48,0,0,1,4.52-4.8h55a5.14,5.14,0,0,1,5.07,4.8Z" style="fill:#e0e0e0"></path><path d="M265.12,319.84H200.49l-6.17-107a4.49,4.49,0,0,1,4.53-4.8h55a5.15,5.15,0,0,1,5.08,4.8Z" style="fill:#ebebeb"></path><path d="M201.78,306.49h45a0,0,0,0,1,0,0v13.35a0,0,0,0,1,0,0H197a0,0,0,0,1,0,0v-8.55A4.8,4.8,0,0,1,201.78,306.49Z" style="fill:#e0e0e0"></path><path d="M236.86,306.49h57.28a4.8,4.8,0,0,1,4.8,4.8v8.55a0,0,0,0,1,0,0H232.06a0,0,0,0,1,0,0v-8.55A4.8,4.8,0,0,1,236.86,306.49Z" style="fill:#ebebeb"></path><rect x="193.96" y="319.84" width="4.43" height="62.56" style="fill:#e0e0e0"></rect><rect x="226.49" y="319.84" width="4.43" height="62.56" style="fill:#e0e0e0"></rect><rect x="260.97" y="319.84" width="4.43" height="62.56" style="fill:#e0e0e0"></rect><rect x="293.49" y="319.84" width="4.43" height="62.56" style="fill:#e0e0e0"></rect><rect x="90.73" y="270.43" width="98.73" height="5.75" style="fill:#e6e6e6"></rect><rect x="97.29" y="276.18" width="92.18" height="99.26" style="fill:#ebebeb"></rect><rect x="189.47" y="276.18" width="222.25" height="99.26" transform="translate(601.18 651.62) rotate(180)" style="fill:#f5f5f5"></rect><rect x="97.29" y="276.18" width="314.43" height="4.26" transform="translate(509.01 556.62) rotate(180)" style="fill:#e0e0e0"></rect><rect x="189.47" y="270.43" width="228.81" height="5.75" transform="translate(607.74 546.61) rotate(180)" style="fill:#f0f0f0"></rect><polygon points="97.29 375.44 97.29 382.4 115.65 375.44 97.29 375.44" style="fill:#ebebeb"></polygon><polygon points="189.47 375.44 189.47 382.4 207.83 375.44 189.47 375.44" style="fill:#f5f5f5"></polygon><polygon points="411.72 375.44 411.72 382.4 393.36 375.44 411.72 375.44" style="fill:#f5f5f5"></polygon><polygon points="189.47 375.44 189.47 382.4 171.1 375.44 189.47 375.44" style="fill:#ebebeb"></polygon><polygon points="319.54 375.44 319.54 382.4 301.18 375.44 319.54 375.44" style="fill:#e0e0e0"></polygon><polygon points="319.54 375.44 319.54 382.4 337.91 375.44 319.54 375.44" style="fill:#e0e0e0"></polygon><rect x="206.48" y="77.33" width="82.03" height="103.79" style="fill:#e6e6e6"></rect><rect x="211.49" y="77.33" width="82.03" height="103.79" style="fill:#f5f5f5"></rect><rect x="205.28" y="97.2" width="94.44" height="64.04" transform="translate(381.73 -123.28) rotate(90)" style="fill:#fff"></rect><rect x="235.41" y="127.33" width="94.44" height="3.79" transform="translate(411.85 -153.41) rotate(90)" style="fill:#e6e6e6"></rect><rect x="215.21" y="124.18" width="74.59" height="6.27" style="fill:#f5f5f5"></rect><rect x="215.21" y="103.32" width="74.59" height="6.27" style="fill:#f5f5f5"></rect><rect x="317.07" y="77.33" width="82.03" height="103.79" style="fill:#e6e6e6"></rect><rect x="322.09" y="77.33" width="82.03" height="103.79" style="fill:#f5f5f5"></rect><rect x="315.88" y="97.2" width="94.44" height="64.04" transform="translate(492.32 -233.88) rotate(90)" style="fill:#fff"></rect><rect x="346" y="127.33" width="94.44" height="3.79" transform="translate(522.45 -264) rotate(90)" style="fill:#e6e6e6"></rect><rect x="325.81" y="153.92" width="74.59" height="6.27" style="fill:#f5f5f5"></rect><rect x="325.81" y="103.32" width="74.59" height="6.27" style="fill:#f5f5f5"></rect><rect x="95.88" y="77.33" width="82.03" height="103.79" style="fill:#e6e6e6"></rect><rect x="100.9" y="77.33" width="82.03" height="103.79" style="fill:#f5f5f5"></rect><rect x="94.69" y="97.2" width="94.44" height="64.04" transform="translate(271.13 -12.69) rotate(90)" style="fill:#fff"></rect><rect x="124.81" y="127.33" width="94.44" height="3.79" transform="translate(301.26 -42.81) rotate(90)" style="fill:#e6e6e6"></rect><rect x="104.62" y="161.48" width="74.59" height="6.27" style="fill:#f5f5f5"></rect><rect x="104.62" y="114.26" width="74.59" height="6.27" style="fill:#f5f5f5"></rect><path d="M369.82,232H354s2.75,8.58,2.75,13.62-12.05,24.83,5.17,24.83,5.17-19.78,5.17-24.83S369.82,232,369.82,232Z" style="fill:#e6e6e6"></path><path d="M311.29,262.18c0,4.54,8.93,8.25,19.86,8.25H341c10.93,0,19.86-3.71,19.86-8.25Z" style="fill:#f0f0f0"></path><rect x="123.94" y="249.67" width="17.4" height="20.76" style="fill:#e6e6e6"></rect><rect x="141.35" y="249.67" width="17.4" height="20.76" transform="translate(300.1 520.1) rotate(180)" style="fill:#f5f5f5"></rect><rect x="147.5" y="253.93" width="13.83" height="16.5" style="fill:#e6e6e6"></rect><rect x="161.33" y="253.93" width="13.83" height="16.5" transform="translate(336.5 524.36) rotate(180)" style="fill:#f5f5f5"></rect></g><g id="freepik--Shadow--inject-71"><ellipse id="freepik--path--inject-71" cx="250" cy="416.24" rx="193.89" ry="11.32" style="fill:#f5f5f5"></ellipse></g><g id="freepik--Device--inject-71"><path d="M286.76,357.35H152a12.73,12.73,0,0,1-12.55-12L128.26,102a11.39,11.39,0,0,1,11.45-12H274.49A12.73,12.73,0,0,1,287,102l11.17,243.33A11.39,11.39,0,0,1,286.76,357.35Z" style="fill:#263238"></path><rect x="174.17" y="85.81" width="20.33" height="1" style="fill:#407BFF"></rect><rect x="162.03" y="85.81" width="5.47" height="1" style="fill:#407BFF"></rect><path d="M288.17,356.65H153.4a12.73,12.73,0,0,1-12.55-12L129.68,101.31a11.39,11.39,0,0,1,11.45-12H275.9a12.73,12.73,0,0,1,12.55,12l11.17,243.34A11.39,11.39,0,0,1,288.17,356.65Z" style="fill:#407BFF"></path><path d="M153.17,351.65a7.4,7.4,0,0,1-7.32-7L134.68,101.31a6.62,6.62,0,0,1,6.67-7H276.13a7.4,7.4,0,0,1,7.32,7l11.17,243.34a6.63,6.63,0,0,1-6.67,7Z" style="fill:#fff"></path><path d="M210.79,157.29a24.22,24.22,0,0,1-23.93-22.88,21.71,21.71,0,0,1,21.86-22.91,24.23,24.23,0,0,1,23.93,22.88,21.69,21.69,0,0,1-21.86,22.91Zm-2.07-45.07a21,21,0,0,0-21.14,22.16,23.49,23.49,0,0,0,23.21,22.19,21,21,0,0,0,21.14-22.16A23.49,23.49,0,0,0,208.72,112.22Z" style="fill:#e0e0e0"></path><path d="M193.61,150.12h2.31a3.33,3.33,0,0,0-.86,2.4,3.71,3.71,0,0,0,3.67,3.51,3.32,3.32,0,0,0,3.35-3.51,3.71,3.71,0,0,0-1.08-2.4H220a3.33,3.33,0,0,0-.85,2.4,3.71,3.71,0,0,0,3.67,3.51,3.32,3.32,0,0,0,3.34-3.51,3.65,3.65,0,0,0-1.07-2.4h2.3l-.1-2.21H193.51Z" style="fill:#407BFF"></path><polygon points="235.93 119.23 231.44 119.23 228.44 119.23 186.68 119.23 194.54 144.45 225.9 144.45 230.95 121.44 236.03 121.44 235.93 119.23" style="fill:#407BFF"></polygon><path d="M212.93,294.71H159.21a.34.34,0,0,1-.34-.33l-2.47-53.72a.38.38,0,0,1,.09-.25.35.35,0,0,1,.25-.1h53.72a.34.34,0,0,1,.34.32l2.47,53.72a.33.33,0,0,1-.1.25A.32.32,0,0,1,212.93,294.71Zm-53.4-.68h53l-2.43-53h-53Z" style="fill:#e0e0e0"></path><path d="M195.51,248.26H172.39a.54.54,0,0,0-.55.57l.07,1.52.52,11.34,1.11,24.08a1,1,0,0,0,1,1h7.79a.93.93,0,0,0,.94-.92l.51-24.15h1.51l2.73,24.15a1,1,0,0,0,1,.92h7.8a.94.94,0,0,0,.94-1l-1.11-24.08-.52-11.34-.07-1.52A.6.6,0,0,0,195.51,248.26Z" style="fill:#e0e0e0"></path><path d="M276.65,294.71H222.93a.34.34,0,0,1-.34-.33l-2.47-53.72a.38.38,0,0,1,.09-.25.35.35,0,0,1,.25-.1h53.72a.34.34,0,0,1,.34.32L277,294.35a.33.33,0,0,1-.1.25A.32.32,0,0,1,276.65,294.71Zm-53.4-.68h53l-2.43-53h-53Z" style="fill:#e0e0e0"></path><polygon points="261.42 287.44 237.52 287.44 235.79 249.67 259.68 249.67 261.42 287.44" style="fill:#e0e0e0"></polygon><polygon points="231.71 267.84 226.39 257.32 235.79 249.67 241 257.79 231.71 267.84" style="fill:#e0e0e0"></polygon><polygon points="265.43 267.84 269.79 257.32 259.68 249.67 255.22 257.79 265.43 267.84" style="fill:#e0e0e0"></polygon><path d="M241.84,249.67a6.24,6.24,0,0,0,6.17,5.9,5.58,5.58,0,0,0,5.63-5.9Z" style="fill:#ebebeb"></path><path d="M273.72,231.15H220a.5.5,0,0,1-.5-.48L217,177a.5.5,0,0,1,.13-.37.52.52,0,0,1,.37-.16h53.72a.5.5,0,0,1,.5.48l2.46,53.72a.5.5,0,0,1-.13.37A.52.52,0,0,1,273.72,231.15Zm-53.24-1H273.2l-2.42-52.73H218.06Z" style="fill:#407BFF"></path><path d="M262.82,197.9l-5.83-.43.13-.44a2.54,2.54,0,0,0-2.44-3.22h-6.06a2.32,2.32,0,0,0-2.1,3.32l.75,1.7-.5.13-1.39.37-2.32.6-1.39.36-2.31.6-1.39.36-5.74,1.5h0c-2.38.68-4.38,2.11-4.26,4.62a5,5,0,0,0,4.9,4.7v0H261a3.75,3.75,0,0,0,3.79-4l-.39-8.54A1.76,1.76,0,0,0,262.82,197.9Z" style="fill:#407BFF"></path><polygon points="250.37 200.7 249 201.07 245.38 199.33 246.78 198.96 250.37 200.7" style="fill:#fff;opacity:0.30000000000000004"></polygon><polygon points="246.71 201.69 245.34 202.06 241.67 200.29 243.06 199.93 246.71 201.69" style="fill:#fff;opacity:0.30000000000000004"></polygon><polygon points="243.05 202.68 241.68 203.05 237.97 201.25 239.36 200.89 243.05 202.68" style="fill:#fff;opacity:0.30000000000000004"></polygon><path d="M264.73,205.75l.1,2.35a3.75,3.75,0,0,1-3.79,4h-4.66a7.37,7.37,0,0,1,7.38-6.39A7.77,7.77,0,0,1,264.73,205.75Z" style="fill:#fff;opacity:0.30000000000000004"></path><path d="M210,231H156.28a.35.35,0,0,1-.34-.33l-2.47-53.72a.35.35,0,0,1,.1-.25.32.32,0,0,1,.24-.11h53.73a.35.35,0,0,1,.34.33l2.46,53.72a.34.34,0,0,1-.09.25A.36.36,0,0,1,210,231Zm-53.39-.68h53l-2.44-53.05h-53Z" style="fill:#e0e0e0"></path><path d="M201,194.88l.21,4.46a3.09,3.09,0,0,1-3.48,3.27,9.18,9.18,0,0,0-1.17-.07,8.28,8.28,0,0,0-3.61.81,8.12,8.12,0,0,0-4.52,7.71v.21a4.46,4.46,0,0,1-.55,2.38,4.35,4.35,0,0,1-3.82,2.21h-3.14a4.81,4.81,0,0,1-4-2.21,4.74,4.74,0,0,1-.78-2.38v-.21a8.79,8.79,0,0,0-1.7-4.79,9.22,9.22,0,0,0-3.54-2.92,8.72,8.72,0,0,0-3.67-.81,9,9,0,0,0-1.17.07,3.43,3.43,0,0,1-3.78-3.27l-.2-4.46a1.35,1.35,0,0,1,1.37-1.44h36.06A1.52,1.52,0,0,1,201,194.88Z" style="fill:#e0e0e0"></path><path d="M187.85,213.65a4.35,4.35,0,0,1-3.82,2.21h-3.14a4.81,4.81,0,0,1-4-2.21,5.58,5.58,0,0,1,5.31-3.7A6.27,6.27,0,0,1,187.85,213.65Z" style="fill:#ebebeb"></path><path d="M240.6,338.87H199.34a9.22,9.22,0,0,1-9.1-8.7l-.54-11.6a8.27,8.27,0,0,1,8.31-8.71h41.26a9.23,9.23,0,0,1,9.1,8.71l.54,11.6A8.26,8.26,0,0,1,240.6,338.87Z" style="fill:#407BFF"></path><path d="M199.54,318.18h7a4,4,0,0,1,2.74.87,3,3,0,0,1,1.05,2.16,2.64,2.64,0,0,1-.59,1.85,2.89,2.89,0,0,1-1.28.81,3.58,3.58,0,0,1,2,1.09,3,3,0,0,1,.71,1.93,3.2,3.2,0,0,1-.36,1.7,3.08,3.08,0,0,1-1.15,1.2,3.88,3.88,0,0,1-1.41.39,14.13,14.13,0,0,1-1.68.17H200.1Zm4,4.77h1.64a1.82,1.82,0,0,0,1.21-.3,1.06,1.06,0,0,0,.3-.88,1.07,1.07,0,0,0-.38-.83,1.9,1.9,0,0,0-1.21-.3h-1.66Zm.22,4.78h1.92a2.06,2.06,0,0,0,1.36-.34,1.12,1.12,0,0,0,.35-.93,1.1,1.1,0,0,0-.43-.86,2.28,2.28,0,0,0-1.4-.33h-1.91Z" style="fill:#fff"></path><path d="M220.24,318.18H224l.34,7.25a6,6,0,0,1-.25,2,4.13,4.13,0,0,1-1,1.67,4,4,0,0,1-1.46,1,7.47,7.47,0,0,1-2.62.41,15.27,15.27,0,0,1-1.94-.13,5.07,5.07,0,0,1-1.78-.49,4.85,4.85,0,0,1-1.34-1.05,4.16,4.16,0,0,1-.87-1.4,7.88,7.88,0,0,1-.44-2.06l-.33-7.25h3.75l.34,7.42a2.21,2.21,0,0,0,.63,1.56,2.13,2.13,0,0,0,1.55.56,2,2,0,0,0,1.5-.55,2.05,2.05,0,0,0,.48-1.57Z" style="fill:#fff"></path><path d="M225.26,318.18h4.17l2.64,4.1,2.27-4.1h4.16l-4.41,7.07.24,5.1h-3.77l-.24-5.1Z" style="fill:#fff"></path></g><g id="freepik--Character--inject-71"><path d="M342.41,191.28c1,1.21,1.75,2.28,2.55,3.44s1.53,2.31,2.26,3.48a82.84,82.84,0,0,1,4,7.3c.61,1.24,1.17,2.51,1.72,3.79s1,2.58,1.48,3.91a63.39,63.39,0,0,1,2.25,8.1l0,.19a2.6,2.6,0,0,1,.06.78,61.34,61.34,0,0,1-.76,6.27c-.35,2.06-.81,4.09-1.35,6.09s-1.17,4-1.86,5.89a58.85,58.85,0,0,1-2.43,5.73,2.1,2.1,0,0,1-3.94-1.38l0-.09c.4-1.83.81-3.77,1.12-5.67s.64-3.82.86-5.73.42-3.8.55-5.69.15-3.77.16-5.63l.1,1a66.59,66.59,0,0,0-2.37-7c-.94-2.3-2-4.57-3.12-6.79s-2.4-4.41-3.73-6.54c-.67-1.06-1.34-2.12-2.05-3.15s-1.45-2.09-2.1-3l-.09-.11a4.22,4.22,0,0,1,6.67-5.18Z" style="fill:#ff8b7b"></path><path d="M347.49,242.92l-5.06,6.63,8.39-.4s2.33-4.77.32-7.56Z" style="fill:#ff8b7b"></path><polygon points="342.51 256.5 349.52 255.78 350.82 249.15 342.43 249.55 342.51 256.5" style="fill:#ff8b7b"></polygon><path d="M328.51,171.55c-.8,4.94-1.45,13.95,2.09,17.1A24.92,24.92,0,0,1,319.13,199c-6.7-3.88-3.76-9.86-3.76-9.86,5.42-1.49,5.14-5.54,4.06-9.32Z" style="fill:#ff8b7b"></path><path d="M310.79,161.93c-.09.66-.52,1.14-1,1.08s-.7-.64-.61-1.3.52-1.15.95-1.09S310.89,161.27,310.79,161.93Z" style="fill:#263238"></path><path d="M310.37,160.69l-1.52-.69S309.48,161.36,310.37,160.69Z" style="fill:#263238"></path><path d="M310.42,163.42a17.59,17.59,0,0,1-2.95,3.87,2.87,2.87,0,0,0,2.29.78Z" style="fill:#ff5652"></path><path d="M313.13,158.65a.42.42,0,0,0,.29,0,.39.39,0,0,0,.14-.54,3.9,3.9,0,0,0-3-2,.4.4,0,0,0-.41.37.41.41,0,0,0,.37.42,3.1,3.1,0,0,1,2.34,1.59A.38.38,0,0,0,313.13,158.65Z" style="fill:#263238"></path><path d="M333.37,162.38c-1.65,8-2.18,11.48-6.86,15.05-7.05,5.39-16.56,1.6-17.34-6.76-.71-7.53,2.11-19.41,10.5-21.51A11.19,11.19,0,0,1,333.37,162.38Z" style="fill:#ff8b7b"></path><path d="M311.9,240.26s-2,62.24-1.51,87.44c.56,26.21.81,87.43.81,87.43h4.58s12.59-50.88,9.47-87.43c4.72-28.07,7.92-87.44,7.92-87.44Z" style="fill:#ff8b7b"></path><path d="M313.27,240.26S329.72,302.5,336,327.7c6.52,26.21,20.68,87.43,20.68,87.43h4.58s1-50.88-10.39-87.43c-1.65-28.07-11.94-87.44-11.94-87.44Z" style="fill:#ff8b7b"></path><path d="M302.09,195.91a6.59,6.59,0,0,1,5.48-6.36c2.67-.45,6.18-1,9.46-1.28a104.69,104.69,0,0,1,15.24,0c2,.12,3.85.26,5.57.46a7.34,7.34,0,0,1,6.35,8.82c-4.72,22.18-4.12,30.36-3.61,42.71,13.82,20.22,10.3,48.91,12,73.41l-44.26,15.5c-2.32-40.39-1.31-82.73.12-88.91C304.23,214.37,302,201.91,302.09,195.91Z" style="fill:#407BFF"></path><polygon points="328.89 297.3 330.89 269.3 339.12 264.02 328.89 297.3" style="fill:#263238;opacity:0.2"></polygon><path d="M340.89,240.88l-32.78,2.44a.75.75,0,0,1-.85-.72l-.12-2.73a1.14,1.14,0,0,1,1-1.12L341,236.31a.75.75,0,0,1,.84.72l.13,2.73A1.15,1.15,0,0,1,340.89,240.88Z" style="fill:#263238"></path><polygon points="319.89 187.72 327.67 189.58 329.28 187.86 326.72 187.25 319.89 187.72" style="fill:#ff8b7b"></polygon><path d="M310.06,195.27c0,1.45,0,2.65,0,3.95s-.15,2.54-.26,3.8c-.23,2.53-.65,5-1.13,7.52a64,64,0,0,1-4.72,14.58l-.89,1.79c-.17.32-.26.55-.49.93a12.08,12.08,0,0,1-.75,1.12,8.95,8.95,0,0,1-10.35,3.28,16.12,16.12,0,0,1-4-2.07,32.66,32.66,0,0,1-5.8-5.39c-.85-1-1.61-2-2.35-3s-1.44-2-2.12-3.15a2.1,2.1,0,0,1,3.31-2.55l.05.05c1.56,1.63,3.29,3.27,5,4.74a28.82,28.82,0,0,0,5.32,3.74,9,9,0,0,0,2.49,1,2.21,2.21,0,0,0,1.47-.08,2.83,2.83,0,0,0,.88-.95l.22-.4c.07-.14.2-.47.29-.69l.63-1.49a68.09,68.09,0,0,0,3.61-13c.39-2.24.65-4.51.88-6.77.11-1.13.19-2.27.24-3.39s.09-2.31.09-3.27v-.16a4.23,4.23,0,0,1,8.45-.13Z" style="fill:#ff8b7b"></path><path d="M281.32,217.14l-5.16-6.56-1.7,8.23s4,3.45,7.23,2.2Z" style="fill:#ff8b7b"></path><polygon points="269.42 208.92 268.36 215.89 274.45 218.81 276.17 210.58 269.42 208.92" style="fill:#ff8b7b"></polygon><path d="M315.54,165.21c2.41,3-8,5.48-4.24,13.95s-6,5-.52,16.58c5.4,11.41,24.82,17.39,36,12.7-4.33-.79-7.8-6.14-4.15-8.77,5.23-3.79,6.53-9.23,3.71-14.22s-9.74-12.84-6.56-18.95c3.89-7.47,4-12.73-4-18.58-8.18-6-26.55-11-26,.13S315.54,165.21,315.54,165.21Z" style="fill:#263238"></path><path d="M336.23,173.39l-9.56-.93a3.24,3.24,0,0,1-2.87-4.15h0a4.64,4.64,0,0,1,4.78-3.4l9.55.94A3.24,3.24,0,0,1,341,170h0A4.65,4.65,0,0,1,336.23,173.39Z" style="fill:#407BFF"></path><path d="M318,164.45a6,6,0,0,1-3.09,3.38c-1.91.87-3.2-.76-2.94-2.73.23-1.78,1.51-4.38,3.56-4.42A2.69,2.69,0,0,1,318,164.45Z" style="fill:#ff8b7b"></path><path d="M310.89,413.71h5.43a.63.63,0,0,1,.62.5l1.05,5.24a1.07,1.07,0,0,1-1.06,1.31c-2.89-.05-3.77-.22-7.4-.22-3.12,0-3.81.23-8.8.23-3,0-2.26-2.44-1-2.63,4.5-.66,6.39-1,9.69-3.4C310,414.36,310.25,413.71,310.89,413.71Z" style="fill:#263238"></path><path d="M355.87,413.71h5.43a.65.65,0,0,1,.63.5l1,5.24a1.07,1.07,0,0,1-1.05,1.31c-2.9-.05-2,0-5.6,0h-5.19c-3,0-2.25-2.35-1-2.63,2.49-.56,3.12-1.45,4.29-3.4A1.78,1.78,0,0,1,355.87,413.71Z" style="fill:#263238"></path></g></svg>